<svg id="Page-1" xmlns="http://www.w3.org/2000/svg" width="128" height="128" viewBox="0 0 128 128">
  <g id="A3" transform="translate(-216 -514)">
    <g id="Logo_Icon" transform="translate(216 514)">
      <rect id="Rectangle" width="128" height="128" fill="#141033" opacity="0"/>
      <path id="Combined-Shape" d="M90.847,57.761a5.831,5.831,0,1,1,8.246,0A5.831,5.831,0,0,1,90.847,57.761ZM71.263,77.345a4.373,4.373,0,1,1,6.184,0A4.373,4.373,0,0,1,71.263,77.345Zm30.922-10.307a4.373,4.373,0,1,1,6.184,0A4.373,4.373,0,0,1,102.185,67.038ZM91.878,77.345a4.373,4.373,0,1,1,6.184,0A4.373,4.373,0,0,1,91.878,77.345Zm21.645-1.031a2.915,2.915,0,1,1,4.123,0A2.915,2.915,0,0,1,113.523,76.314ZM103.216,86.622a2.915,2.915,0,1,1,4.123,0A2.915,2.915,0,0,1,103.216,86.622ZM80.54,68.068a5.831,5.831,0,1,1,8.246,0A5.831,5.831,0,0,1,80.54,68.068Zm0-20.615a5.831,5.831,0,1,1,8.246,0A5.831,5.831,0,0,1,80.54,47.454ZM70.232,57.761a5.831,5.831,0,1,1,8.246,0A5.831,5.831,0,0,1,70.232,57.761Zm-20.711,0a5.831,5.831,0,1,1,8.246,0A5.831,5.831,0,0,1,49.522,57.761ZM29.938,77.345a4.373,4.373,0,1,1,6.184,0A4.373,4.373,0,0,1,29.938,77.345ZM60.86,67.038a4.373,4.373,0,1,1,6.184,0A4.373,4.373,0,0,1,60.86,67.038ZM50.553,77.345a4.373,4.373,0,1,1,6.184,0A4.373,4.373,0,0,1,50.553,77.345Zm-40.2-1.031a2.915,2.915,0,1,1,4.123,0A2.915,2.915,0,0,1,10.354,76.314ZM20.661,86.622a2.915,2.915,0,1,1,4.123,0A2.915,2.915,0,0,1,20.661,86.622Zm41.229,0a2.915,2.915,0,1,1,4.123,0A2.915,2.915,0,0,1,61.891,86.622ZM19.631,67.038a4.373,4.373,0,1,1,6.184,0A4.373,4.373,0,0,1,19.631,67.038Zm19.584,1.031a5.831,5.831,0,1,1,8.246,0A5.831,5.831,0,0,1,39.214,68.068Zm0-20.615a5.831,5.831,0,1,1,8.246,0A5.831,5.831,0,0,1,39.214,47.454ZM28.907,57.761a5.831,5.831,0,1,1,8.246,0A5.831,5.831,0,0,1,28.907,57.761Z" fill="#141033" fill-rule="evenodd"/>
    </g>
  </g>
</svg>
