<svg xmlns="http://www.w3.org/2000/svg" width="177" height="56" viewBox="0 0 177 56">
  <g id="logo" transform="translate(-236 -147)">
    <path id="chodo" d="M10.619,0a8.952,8.952,0,0,0,3.69-.82,2.39,2.39,0,0,0,1.353-2.173,2.223,2.223,0,0,0-.246-1.025,2.39,2.39,0,0,0-2.173-1.353,2.126,2.126,0,0,0-.984.2,3.829,3.829,0,0,1-1.64.369A4.508,4.508,0,0,1,6.437-9.553c0-2.665,1.886-4.8,4.182-4.8a3.829,3.829,0,0,1,1.64.369,2.351,2.351,0,0,0,1.025.246,2.37,2.37,0,0,0,2.132-1.394,2.223,2.223,0,0,0,.246-1.025,2.289,2.289,0,0,0-1.353-2.132,8.393,8.393,0,0,0-3.69-.861c-4.961,0-8.979,4.305-8.979,9.594C1.64-4.3,5.658,0,10.619,0Zm23.9-14.924C33-17.63,30.176-19.147,26.568-19.147H23.7v-7.175A2.38,2.38,0,0,0,21.32-28.7a2.38,2.38,0,0,0-2.378,2.378V-2.378A2.38,2.38,0,0,0,21.32,0,2.38,2.38,0,0,0,23.7-2.378V-14.35h2.87c1.845,0,3.034.533,3.731,1.64a4.45,4.45,0,0,1,.574,1.968v8.364A2.38,2.38,0,0,0,33.251,0,2.389,2.389,0,0,0,35.67-2.378v-8.364A9.223,9.223,0,0,0,34.522-14.924ZM48.5-19.147A9.6,9.6,0,0,0,38.95-9.553,9.589,9.589,0,0,0,48.5,0,9.6,9.6,0,0,0,58.1-9.553,9.606,9.606,0,0,0,48.5-19.147Zm0,14.35a4.759,4.759,0,0,1-4.756-4.756,4.768,4.768,0,0,1,4.756-4.8,4.777,4.777,0,0,1,4.8,4.8A4.768,4.768,0,0,1,48.5-4.8ZM61.377-9.553A9.589,9.589,0,0,0,70.93,0a9.738,9.738,0,0,0,5-1.394A2.409,2.409,0,0,0,78.1,0a2.389,2.389,0,0,0,2.419-2.378V-26.322A2.389,2.389,0,0,0,78.1-28.7a2.38,2.38,0,0,0-2.378,2.378v8.487a9.443,9.443,0,0,0-4.8-1.312A9.6,9.6,0,0,0,61.377-9.553Zm4.8,0a4.768,4.768,0,0,1,4.756-4.8,4.777,4.777,0,0,1,4.8,4.8A4.768,4.768,0,0,1,70.93-4.8,4.759,4.759,0,0,1,66.174-9.553Zm27.183-9.594A9.6,9.6,0,0,0,83.8-9.553,9.589,9.589,0,0,0,93.357,0a9.6,9.6,0,0,0,9.594-9.553A9.606,9.606,0,0,0,93.357-19.147Zm0,14.35A4.759,4.759,0,0,1,88.6-9.553a4.768,4.768,0,0,1,4.756-4.8,4.777,4.777,0,0,1,4.8,4.8A4.768,4.768,0,0,1,93.357-4.8Z" transform="translate(305 189)" fill="#040214"/>
    <path id="fuchsia-v" d="M.015,41.47H0v-31.1H.015a10.944,10.944,0,0,1,21.857,0h.015v31.1h-.015a10.944,10.944,0,0,1-21.857,0Z" transform="translate(283.244 148.589) rotate(45)" fill="#ff006c"/>
    <path id="green-v" d="M25.919,21.887H10.367v-.015a10.944,10.944,0,0,1,0-21.857V0H26.5V.015a10.944,10.944,0,0,1,0,21.857v.015Z" transform="translate(251.476 159.178) rotate(45)" fill="#00ffb9"/>
    <rect id="aligner" width="177" height="56" transform="translate(236 147)" fill="none"/>
  </g>
</svg>
